<svg width="20" height="20" viewBox="0 0 20 20" fill="none" xmlns="http://www.w3.org/2000/svg">
<path d="M19.8692 10.2281C19.87 9.54663 19.812 8.8664 19.6957 8.19482H10.2V12.046H15.6387C15.5274 12.6611 15.2919 13.2475 14.9462 13.7697C14.6006 14.292 14.1521 14.7393 13.6277 15.0848V17.5846H16.8736C18.7741 15.8444 19.8692 13.271 19.8692 10.2281Z" fill="#4285F4"/>
<path d="M10.1999 20C12.9172 20 15.2051 19.1139 16.8735 17.5862L13.6276 15.0864C12.7242 15.6947 11.5606 16.0419 10.1999 16.0419C7.57353 16.0419 5.34432 14.2836 4.54718 11.9143H1.20337V14.4906C2.04144 16.1467 3.32654 17.5389 4.91518 18.5118C6.50382 19.4847 8.33349 19.9999 10.1999 20Z" fill="#34A853"/>
<path d="M4.5471 11.914C4.12568 10.6724 4.12568 9.32793 4.5471 8.08639V5.51013H1.20329C0.498276 6.90333 0.131104 8.44096 0.131104 10.0002C0.131104 11.5594 0.498276 13.097 1.20329 14.4902L4.5471 11.914Z" fill="#FBBC04"/>
<path d="M10.1999 3.95879C11.6359 3.93549 13.0234 4.47429 14.0626 5.45872L16.9365 2.60469C15.1141 0.904883 12.6999 -0.0283412 10.1999 0.000656061C8.33349 0.000740536 6.50382 0.515984 4.91518 1.48886C3.32654 2.46174 2.04144 3.85397 1.20337 5.5101L4.54718 8.08636C5.34432 5.71704 7.57353 3.95879 10.1999 3.95879Z" fill="#EA4335"/>
</svg>
