<svg width="60" height="60" viewBox="0 0 60 60" fill="none" xmlns="http://www.w3.org/2000/svg">
<circle cx="30" cy="30" r="30" fill="#26BB74"/>
<path d="M33.999 26.5H35.999C35.999 23.663 33.244 22.369 30.999 22.071V20H28.999V22.071C26.754 22.369 23.999 23.663 23.999 26.5C23.999 29.206 26.665 30.613 28.999 30.93V35.9C27.551 35.649 25.999 34.876 25.999 33.5H23.999C23.999 36.089 26.424 37.619 28.999 37.936V40H30.999V37.93C33.244 37.632 35.999 36.337 35.999 33.5C35.999 30.663 33.244 29.369 30.999 29.071V24.1C32.329 24.339 33.999 25.041 33.999 26.5ZM25.999 26.5C25.999 25.041 27.669 24.339 28.999 24.1V28.899C27.628 28.646 25.999 27.897 25.999 26.5ZM33.999 33.5C33.999 34.959 32.329 35.661 30.999 35.9V31.1C32.329 31.339 33.999 32.041 33.999 33.5Z" fill="white"/>
</svg>
