<svg width="60" height="60" viewBox="0 0 60 60" fill="none" xmlns="http://www.w3.org/2000/svg">
<circle cx="30" cy="30" r="30" fill="#26BB74"/>
<path d="M36 33C35.817 33 35.642 33.022 35.468 33.054L26.946 24.532C26.978 24.359 27 24.182 27 24C27 22.346 25.654 21 24 21C22.346 21 21 22.346 21 24C21 25.302 21.839 26.401 23 26.815V33.184C22.4168 33.3897 21.9116 33.7708 21.5535 34.2749C21.1955 34.7791 21.0021 35.3816 21 36C21 37.654 22.346 39 24 39C24.6183 38.9982 25.2209 38.805 25.725 38.4469C26.2291 38.0888 26.6099 37.5833 26.815 37H33.184C33.3893 37.5832 33.7701 38.0886 34.2741 38.4467C34.7782 38.8048 35.3807 38.9981 35.999 39C37.653 39 38.999 37.654 38.999 36C38.999 34.346 37.654 33 36 33ZM25 33.184V26.816C25.329 26.698 25.629 26.525 25.894 26.308L33.693 34.107C33.4728 34.3731 33.3009 34.6757 33.185 35.001H26.815C26.6665 34.5823 26.4265 34.202 26.1125 33.8877C25.7986 33.5734 25.4185 33.333 25 33.184ZM24 23C24.1981 22.9998 24.3917 23.0584 24.5565 23.1683C24.7213 23.2782 24.8497 23.4345 24.9256 23.6175C25.0015 23.8004 25.0214 24.0018 24.9828 24.196C24.9442 24.3903 24.8489 24.5688 24.7088 24.7088C24.5688 24.8489 24.3903 24.9442 24.196 24.9828C24.0018 25.0214 23.8004 25.0015 23.6175 24.9256C23.4345 24.8497 23.2782 24.7213 23.1683 24.5565C23.0584 24.3917 22.9998 24.1981 23 24C23 23.449 23.448 23 24 23ZM24 37C23.7425 36.9885 23.4994 36.8781 23.3213 36.6918C23.1431 36.5055 23.0437 36.2577 23.0437 36C23.0437 35.7423 23.1431 35.4945 23.3213 35.3082C23.4994 35.1219 23.7425 35.0115 24 35C24.2575 35.0115 24.5006 35.1219 24.6787 35.3082C24.8569 35.4945 24.9563 35.7423 24.9563 36C24.9563 36.2577 24.8569 36.5055 24.6787 36.6918C24.5006 36.8781 24.2575 36.9885 24 37ZM36 37C35.7425 36.9885 35.4994 36.8781 35.3213 36.6918C35.1431 36.5055 35.0437 36.2577 35.0437 36C35.0437 35.7423 35.1431 35.4945 35.3213 35.3082C35.4994 35.1219 35.7425 35.0115 36 35C36.2575 35.0115 36.5006 35.1219 36.6787 35.3082C36.8569 35.4945 36.9563 35.7423 36.9563 36C36.9563 36.2577 36.8569 36.5055 36.6787 36.6918C36.5006 36.8781 36.2575 36.9885 36 37Z" fill="white"/>
</svg>
