<svg width="60" height="60" viewBox="0 0 60 60" fill="none" xmlns="http://www.w3.org/2000/svg">
<circle cx="30" cy="30" r="30" fill="#26BB74"/>
<path d="M20 38H40V40H20V38ZM22 21V35C22 35.2652 22.1054 35.5196 22.2929 35.7071C22.4804 35.8946 22.7348 36 23 36H28C28.2652 36 28.5196 35.8946 28.7071 35.7071C28.8946 35.5196 29 35.2652 29 35V21C29 20.7348 28.8946 20.4804 28.7071 20.2929C28.5196 20.1054 28.2652 20 28 20H23C22.7348 20 22.4804 20.1054 22.2929 20.2929C22.1054 20.4804 22 20.7348 22 21ZM24 22H27V34H24V22ZM31 35C31 35.2652 31.1054 35.5196 31.2929 35.7071C31.4804 35.8946 31.7348 36 32 36H37C37.2652 36 37.5196 35.8946 37.7071 35.7071C37.8946 35.5196 38 35.2652 38 35V25C38 24.7348 37.8946 24.4804 37.7071 24.2929C37.5196 24.1054 37.2652 24 37 24H32C31.7348 24 31.4804 24.1054 31.2929 24.2929C31.1054 24.4804 31 24.7348 31 25V35ZM33 26H36V34H33V26Z" fill="white"/>
</svg>
