<svg width="60" height="60" viewBox="0 0 60 60" fill="none" xmlns="http://www.w3.org/2000/svg">
<circle cx="30" cy="30" r="30" fill="#26BB74"/>
<path d="M30 20C24.486 20 20 24.486 20 30C20 35.514 24.486 40 30 40C35.514 40 40 35.514 40 30C40 24.486 35.514 20 30 20ZM30 38C25.589 38 22 34.411 22 30C22 25.589 25.589 22 30 22C34.411 22 38 25.589 38 30C38 34.411 34.411 38 30 38Z" fill="white"/>
<path d="M26.5 30C27.3284 30 28 29.3284 28 28.5C28 27.6716 27.3284 27 26.5 27C25.6716 27 25 27.6716 25 28.5C25 29.3284 25.6716 30 26.5 30Z" fill="white"/>
<path d="M33.493 29.986C34.3176 29.986 34.986 29.3176 34.986 28.493C34.986 27.6684 34.3176 27 33.493 27C32.6684 27 32 27.6684 32 28.493C32 29.3176 32.6684 29.986 33.493 29.986Z" fill="white"/>
<path d="M30 36C34 36 35 32 35 32H25C25 32 26 36 30 36Z" fill="white"/>
</svg>
