<svg width="20" height="20" viewBox="0 0 20 20" fill="none" xmlns="http://www.w3.org/2000/svg">
<path d="M18.916 7.23333C18.9688 7.11325 18.9975 6.98393 19.0003 6.85278C19.0031 6.72162 18.98 6.5912 18.9323 6.46897C18.8847 6.34674 18.8134 6.23511 18.7226 6.14045C18.6318 6.04579 18.5232 5.96998 18.403 5.91733L5.328 0.161329C4.333 -0.276671 3.108 0.212329 2.683 1.20333L0.473 6.35733C0.265088 6.84486 0.259088 7.39495 0.456316 7.8869C0.653544 8.37885 1.03789 8.77245 1.525 8.98133L7.563 11.5693L6.323 14.6693H2V11.6693H0V19.6693H2V16.6693H6.323C7.146 16.6693 7.875 16.1753 8.179 15.4113L9.401 12.3573L14.606 14.5873C14.8484 14.6913 15.1221 14.6954 15.3674 14.5985C15.6128 14.5017 15.81 14.3119 15.916 14.0703L16.228 13.3603L17.929 14.0403L19.929 9.04033L18.393 8.42733L18.916 7.23333ZM14.482 12.3593L2.313 7.14433L4.521 1.99233L16.683 7.34633L14.482 12.3593Z" fill="white"/>
</svg>
